<?xml version="1.0" standalone="no"?>
<!DOCTYPE svg PUBLIC "-//W3C//DTD SVG 20010904//EN"
 "http://www.w3.org/TR/2001/REC-SVG-20010904/DTD/svg10.dtd">
<svg version="1.0" xmlns="http://www.w3.org/2000/svg"
 width="1080.000000pt" height="1080.000000pt" viewBox="0 0 1080.000000 1080.000000"
 preserveAspectRatio="xMidYMid meet">

<g transform="translate(0.000000,1080.000000) scale(0.100000,-0.100000)"
fill="#000000" stroke="none">
<path d="M5163 9680 c-649 -48 -1279 -283 -1782 -664 -30 -23 -66 -50 -80 -61
-76 -56 -219 -186 -322 -291 -518 -532 -848 -1227 -933 -1964 -71 -612 30
-1256 280 -1788 24 -51 44 -95 44 -96 0 -5 102 -189 116 -210 11 -16 16 -6 44
85 161 524 475 1010 884 1367 149 131 181 156 321 249 375 251 770 403 1233
475 129 20 183 23 437 23 319 -1 432 -13 692 -75 546 -130 1026 -400 1428
-804 346 -348 596 -759 740 -1218 20 -65 38 -118 40 -118 12 0 160 292 211
416 330 798 347 1678 49 2484 -25 69 -91 215 -145 325 -234 474 -572 881 -995
1196 -103 77 -221 159 -229 159 -3 0 -25 13 -49 30 -75 51 -345 186 -487 243
-259 106 -587 189 -870 221 -172 20 -470 27 -627 16z"/>
<path d="M5191 6499 c-1021 -78 -1921 -744 -2300 -1702 -186 -470 -238 -1016
-140 -1490 112 -543 437 -1036 909 -1378 61 -45 252 -155 334 -193 544 -256
1186 -282 1746 -69 175 66 414 194 533 286 21 16 40 28 42 26 2 -2 11 -67 20
-144 13 -107 16 -190 13 -351 l-5 -212 104 44 c303 127 594 320 837 557 74 72
105 106 200 217 51 60 148 195 202 281 469 757 541 1685 192 2499 -220 515
-601 953 -1083 1247 -477 291 -1042 425 -1604 382z"/>
</g>
</svg>
